<svg width="247.109" height="53.243" viewBox="0 0 247.109 53.243" xmlns="http://www.w3.org/2000/svg"><g id="svgGroup" stroke-linecap="round" fill-rule="evenodd" font-size="9pt" stroke="#000" stroke-width="0.25mm" fill="black" style="stroke:#000;stroke-width:0.25mm;fill:#1f386e"><path d="M 56.797 43.555 L 72.734 43.555 A 19.733 19.733 0 0 0 73.845 43.526 Q 74.87 43.468 75.525 43.293 A 3.018 3.018 0 0 0 76.094 43.086 L 76.25 43.125 L 75.859 52.93 L 46.602 52.93 L 46.602 0.704 A 46.605 46.605 0 0 0 47.715 0.772 A 62.727 62.727 0 0 0 48.945 0.821 L 51.68 0.899 A 185.36 185.36 0 0 0 54.531 0.957 A 234.803 234.803 0 0 0 57.617 0.977 Q 66.563 0.977 75.313 0.664 Q 74.902 3.945 74.884 9.325 A 149.291 149.291 0 0 0 74.883 9.844 Q 74.883 10.469 74.961 10.782 L 74.883 10.899 A 11.828 11.828 0 0 0 73.445 10.59 Q 71.928 10.352 69.811 10.318 A 44.878 44.878 0 0 0 69.102 10.313 L 56.797 10.313 L 56.797 20.274 L 66.055 20.274 A 124.499 124.499 0 0 0 67.545 20.266 Q 70.513 20.23 71.211 20.039 L 71.328 29.688 A 30.507 30.507 0 0 0 69.91 29.577 Q 68.433 29.493 66.484 29.493 L 56.797 29.493 L 56.797 43.555 Z M 25.859 53.243 L 16.797 32.735 A 35.154 35.154 0 0 1 15.271 32.802 A 42.237 42.237 0 0 1 14.297 32.813 A 25.404 25.404 0 0 1 13.552 32.801 Q 12.701 32.776 11.508 32.698 A 116.38 116.38 0 0 1 10.352 32.618 L 10.352 52.93 L 0 52.93 L 0 0.704 Q 5.469 0 13.438 0 A 47.339 47.339 0 0 1 19.109 0.317 Q 25.443 1.084 29.215 3.706 A 13.882 13.882 0 0 1 29.629 4.004 A 12.807 12.807 0 0 1 34.414 11.459 Q 34.952 13.655 34.961 16.284 A 26.101 26.101 0 0 1 34.961 16.368 A 14.635 14.635 0 0 1 30.452 27.098 A 18.756 18.756 0 0 1 30.078 27.461 A 16.92 16.92 0 0 1 26.917 29.76 A 19.078 19.078 0 0 1 26.406 30.039 L 34.375 46.836 A 70.597 70.597 0 0 0 35.215 48.636 Q 36.953 52.215 37.969 53.008 L 37.773 53.204 A 19.675 19.675 0 0 0 36.252 53.019 Q 33.244 52.762 28.363 53.062 A 124.729 124.729 0 0 0 25.859 53.243 Z M 229.531 52.93 L 217.813 52.93 A 5.749 5.749 0 0 0 218.01 52.069 Q 218.247 50.629 218.303 47.741 A 99.694 99.694 0 0 0 218.32 45.821 L 218.32 34.961 A 2370.158 2370.158 0 0 0 215.958 29.774 Q 211.586 20.208 209.949 16.908 A 62.793 62.793 0 0 0 209.687 16.387 Q 208.01 13.085 206.802 11.018 A 47.647 47.647 0 0 0 206.523 10.547 A 482.78 482.78 0 0 0 205.113 8.175 Q 202.682 4.114 201.843 2.949 A 5.674 5.674 0 0 0 201.621 2.657 Q 200.781 1.641 199.922 0.977 L 213.398 0.977 A 26.031 26.031 0 0 1 213.633 1.414 Q 214.014 2.139 214.57 3.282 L 224.023 23.243 Q 224.666 21.655 225.528 19.701 A 173.89 173.89 0 0 1 225.586 19.571 A 74969.405 74969.405 0 0 0 227.584 15.273 Q 233.144 3.307 234.046 1.354 A 37.167 37.167 0 0 0 234.219 0.977 L 247.109 0.977 A 9.253 9.253 0 0 0 245.988 2.076 Q 244.887 3.327 243.567 5.434 A 58.303 58.303 0 0 0 242.227 7.696 A 33.428 33.428 0 0 0 241.328 9.327 A 44.794 44.794 0 0 0 240.43 11.172 L 231.602 29.571 Q 230.216 32.671 229.204 35.192 A 108.767 108.767 0 0 0 229.062 35.547 L 229.063 46.758 A 53.083 53.083 0 0 0 229.108 49.039 Q 229.198 51.126 229.466 52.593 A 14.513 14.513 0 0 0 229.531 52.93 Z M 94.141 41.68 L 90.469 53.243 A 65.364 65.364 0 0 0 87.79 53.052 Q 86.164 52.968 84.329 52.942 A 119.834 119.834 0 0 0 82.617 52.93 L 79.531 52.93 L 96.523 5.313 A 102.042 102.042 0 0 0 96.908 4.206 Q 97.554 2.312 97.642 1.733 A 1.039 1.039 0 0 0 97.656 1.582 A 11.329 11.329 0 0 0 97.655 1.399 Q 97.65 1.129 97.632 1.006 A 0.432 0.432 0 0 0 97.617 0.939 L 97.656 0.86 A 109.837 109.837 0 0 0 100.952 0.961 A 130.395 130.395 0 0 0 103.047 0.977 A 174.494 174.494 0 0 0 104.937 0.966 Q 106.621 0.948 108.672 0.899 L 108.711 0.977 Q 108.656 1.087 108.64 1.256 A 1.579 1.579 0 0 0 108.633 1.407 A 2.259 2.259 0 0 0 108.681 1.81 Q 108.871 2.799 109.805 5.352 L 127.148 53.047 A 28.047 28.047 0 0 0 126.524 53.023 Q 126.248 53.016 125.945 53.012 A 50.288 50.288 0 0 0 125.312 53.008 L 123.281 52.93 L 121.523 52.93 L 115.469 52.93 L 111.797 41.68 L 94.141 41.68 Z M 185.586 9.727 L 185.586 53.164 A 15.695 15.695 0 0 0 184.675 53.085 Q 182.445 52.942 176.912 52.931 A 478.815 478.815 0 0 0 175.938 52.93 L 174.688 52.93 L 174.688 9.727 L 166.953 9.727 A 52.829 52.829 0 0 0 165.763 9.739 Q 163.46 9.792 162.918 10.064 A 0.674 0.674 0 0 0 162.891 10.079 Q 162.266 10.43 161.914 10.704 L 161.797 10.664 L 161.797 0.664 L 161.914 0.547 A 4.667 4.667 0 0 0 162.653 0.709 Q 163.968 0.911 166.832 0.961 A 118.005 118.005 0 0 0 168.867 0.977 L 193.359 0.977 A 52.829 52.829 0 0 0 194.55 0.965 Q 196.853 0.912 197.394 0.64 A 0.674 0.674 0 0 0 197.422 0.625 Q 198.047 0.274 198.398 0 L 198.516 0.039 L 198.516 10.039 L 198.398 10.157 A 4.667 4.667 0 0 0 197.66 9.995 Q 196.344 9.793 193.48 9.743 A 118.005 118.005 0 0 0 191.445 9.727 L 185.586 9.727 Z M 144.766 52.93 L 141.055 52.93 Q 136.101 52.93 134.025 53.105 A 14.75 14.75 0 0 0 133.437 53.164 L 133.438 0.743 A 4.674 4.674 0 0 0 133.944 0.834 Q 134.778 0.945 136.351 0.97 A 61.622 61.622 0 0 0 137.324 0.977 A 132.829 132.829 0 0 0 139.671 0.955 Q 140.704 0.937 141.832 0.903 A 230.44 230.44 0 0 0 144.18 0.821 L 144.18 43.555 L 152.266 43.555 Q 155.621 43.555 157.695 43.342 A 24.249 24.249 0 0 0 157.891 43.321 A 13202.493 13202.493 0 0 0 157.827 45.469 Q 157.617 52.505 157.617 52.813 L 157.617 53.204 A 72.7 72.7 0 0 0 155.378 53.084 Q 151.939 52.946 146.161 52.932 A 555.743 555.743 0 0 0 144.766 52.93 Z M 10.352 9.414 L 10.352 24.336 A 25.136 25.136 0 0 0 12.145 24.523 Q 13.389 24.61 14.844 24.61 Q 16.818 24.61 18.311 24.346 A 11.767 11.767 0 0 0 19.18 24.161 A 9.683 9.683 0 0 0 21.009 23.501 A 7.98 7.98 0 0 0 22.227 22.774 A 6.688 6.688 0 0 0 24.827 18.504 A 10.324 10.324 0 0 0 25 16.563 A 9.244 9.244 0 0 0 24.758 14.375 A 5.519 5.519 0 0 0 22.109 10.743 A 9.668 9.668 0 0 0 19.956 9.875 Q 17.615 9.219 14.18 9.219 A 36.98 36.98 0 0 0 11.046 9.348 A 33.025 33.025 0 0 0 10.352 9.414 Z M 97.109 32.305 L 108.75 32.305 L 102.852 14.141 L 97.109 32.305 Z" vector-effect="non-scaling-stroke"/></g></svg>

