<?xml version="1.0" standalone="no"?>
<!DOCTYPE svg PUBLIC "-//W3C//DTD SVG 20010904//EN"
 "http://www.w3.org/TR/2001/REC-SVG-20010904/DTD/svg10.dtd">
<svg version="1.0" xmlns="http://www.w3.org/2000/svg"
 width="1250.000000pt" height="327.000000pt" viewBox="0 0 1250.000000 327.000000"
 preserveAspectRatio="xMidYMid meet">

<g transform="translate(0.000000,327.000000) scale(0.100000,-0.100000)"
fill="#16638f" stroke="none">
<path d="M741 2673 c-63 -2 -121 -9 -128 -15 -11 -8 -13 -183 -13 -927 0 -504
3 -933 6 -954 l7 -37 141 0 c77 0 146 4 152 8 7 5 13 117 17 348 3 187 10 352
16 366 13 33 64 51 151 51 102 0 141 -27 175 -123 8 -24 22 -51 29 -60 7 -8
21 -40 31 -70 10 -30 26 -66 35 -80 9 -14 23 -42 30 -64 7 -21 25 -63 41 -93
16 -30 29 -63 29 -73 0 -9 11 -34 25 -54 14 -20 30 -57 36 -82 18 -71 27 -74
236 -74 194 0 208 4 163 45 -10 9 -24 34 -31 54 -6 20 -24 56 -39 81 -15 25
-31 59 -35 75 -3 17 -13 37 -21 46 -8 9 -25 44 -39 79 -14 35 -31 70 -38 79
-8 9 -21 37 -30 64 -9 26 -25 59 -36 74 -12 14 -21 33 -21 41 0 8 -16 43 -35
78 -22 39 -35 76 -35 99 0 39 5 45 108 133 78 65 140 162 163 251 40 155 41
165 15 275 -13 55 -27 117 -31 136 -17 81 -163 221 -266 255 -30 10 -63 24
-74 31 -12 8 -52 18 -90 24 -78 11 -467 19 -644 13z m548 -303 c63 -8 82 -16
127 -50 29 -22 64 -55 78 -73 25 -32 26 -40 26 -156 0 -74 -5 -131 -12 -144
-29 -55 -92 -117 -136 -134 -26 -10 -62 -25 -81 -35 -48 -25 -275 -26 -309 -2
-53 37 -57 61 -57 310 0 252 0 254 60 280 36 16 197 18 304 4z"/>
<path d="M3095 2660 l-320 -5 0 -955 0 -955 515 -2 c283 -2 521 1 528 5 9 6
13 47 15 148 l2 139 -342 5 c-251 4 -345 8 -354 17 -19 19 -28 104 -28 283 0
190 9 258 35 277 14 10 72 13 250 13 175 0 235 3 241 13 10 16 17 208 9 252
l-7 35 -182 1 c-230 0 -315 9 -333 34 -10 14 -14 58 -14 169 0 131 3 155 19
183 19 30 23 31 106 38 47 4 186 4 309 0 213 -7 224 -6 229 11 3 11 9 78 12
151 7 125 6 132 -13 142 -21 11 -55 11 -677 1z"/>
<path d="M5099 2593 c-17 -38 -37 -95 -45 -127 -8 -33 -23 -73 -33 -90 -10
-17 -24 -56 -30 -86 -7 -30 -21 -70 -32 -89 -11 -18 -25 -56 -30 -85 -6 -28
-21 -69 -34 -91 -12 -22 -28 -67 -35 -100 -7 -33 -21 -75 -32 -93 -11 -18 -26
-60 -34 -95 -8 -34 -22 -73 -30 -86 -9 -13 -25 -55 -36 -95 -11 -39 -28 -84
-38 -101 -10 -16 -21 -50 -25 -75 -4 -25 -18 -66 -31 -92 -13 -26 -31 -75 -38
-109 -8 -33 -22 -69 -30 -78 -8 -9 -23 -48 -31 -86 -9 -39 -25 -83 -35 -100
-22 -36 -53 -152 -45 -165 8 -13 321 -13 345 0 12 7 21 30 29 76 7 37 21 84
32 106 11 21 27 70 36 109 14 64 19 73 61 104 l45 35 297 0 c270 0 298 -2 312
-17 34 -39 90 -158 98 -210 5 -31 21 -78 35 -104 14 -27 25 -57 25 -67 0 -38
18 -42 196 -42 95 0 175 4 178 9 9 14 -14 113 -34 146 -10 17 -26 58 -34 92
-9 35 -25 77 -36 95 -10 19 -24 58 -31 88 -6 30 -22 73 -34 95 -13 22 -28 63
-33 91 -6 27 -22 70 -36 95 -14 24 -26 56 -26 70 0 14 -11 48 -25 75 -14 27
-32 76 -41 108 -8 33 -26 80 -39 106 -13 25 -26 64 -30 86 -4 21 -17 57 -30
79 -12 22 -28 64 -34 93 -6 29 -22 74 -35 100 -13 27 -28 66 -32 88 -4 21 -20
63 -35 93 -16 30 -29 66 -29 80 0 14 -14 53 -30 86 -16 33 -30 70 -30 83 0 13
-5 32 -10 43 -10 18 -23 19 -180 19 l-170 0 -31 -67z m204 -465 c48 -66 67
-106 81 -175 9 -39 24 -86 35 -104 11 -19 25 -63 31 -99 6 -36 18 -76 27 -89
9 -14 22 -47 29 -75 11 -43 11 -54 -1 -73 -21 -31 -61 -36 -248 -31 -152 3
-165 5 -187 26 -23 22 -23 22 -6 58 9 20 23 67 31 104 8 37 23 83 34 101 10
19 24 63 30 98 6 35 19 78 30 97 11 18 25 61 32 96 11 59 31 98 50 98 4 0 19
-15 32 -32z"/>
<path d="M6900 1700 l0 -960 429 0 428 0 5 118 c3 66 3 133 0 150 l-4 31 -234
3 c-208 3 -235 5 -251 21 -17 17 -18 67 -24 805 -3 433 -6 788 -7 790 -1 1
-78 2 -172 2 l-170 0 0 -960z"/>
<path d="M8406 2652 c-10 -16 -19 -190 -12 -236 l7 -46 214 0 c210 0 214 0
229 -22 14 -20 16 -110 17 -763 0 -407 4 -762 7 -790 l7 -50 170 0 170 0 6
100 c4 55 7 409 8 786 1 660 2 688 20 710 19 24 22 24 228 27 114 1 218 5 231
7 22 5 23 7 20 143 l-3 137 -657 3 c-361 1 -659 -2 -662 -6z"/>
<path d="M10307 2653 c-4 -3 1 -16 11 -27 10 -12 38 -52 62 -91 23 -38 58 -93
76 -121 19 -28 34 -57 34 -65 0 -8 13 -30 29 -49 15 -19 32 -46 36 -60 4 -14
14 -36 23 -50 27 -41 112 -213 112 -225 0 -7 11 -28 25 -48 13 -20 30 -56 36
-79 7 -24 21 -52 31 -64 10 -11 25 -45 34 -75 9 -30 20 -56 24 -59 11 -8 36
-61 44 -95 4 -16 14 -38 23 -47 38 -42 42 -83 43 -426 l0 -332 178 2 177 3 5
337 c5 326 6 337 27 366 12 16 27 49 33 73 6 24 22 60 34 79 13 19 31 58 40
87 9 28 23 57 31 63 8 6 21 33 30 60 9 27 24 59 34 72 10 13 26 46 35 75 9 28
23 57 31 63 8 6 19 28 26 48 7 20 27 65 46 100 18 35 33 70 33 77 0 7 11 26
24 42 13 15 26 42 30 59 4 17 18 47 32 65 14 19 30 45 35 58 12 31 97 158 111
167 27 17 -31 24 -199 24 -152 0 -184 -3 -197 -16 -9 -8 -16 -21 -16 -28 0 -7
-13 -33 -30 -57 -16 -24 -30 -53 -30 -65 0 -12 -12 -39 -26 -60 -14 -21 -32
-57 -39 -80 -7 -24 -22 -55 -32 -71 -11 -15 -28 -51 -37 -80 -9 -28 -23 -57
-31 -63 -8 -6 -21 -35 -29 -64 -9 -29 -24 -64 -34 -77 -11 -13 -25 -42 -32
-64 -15 -46 -38 -85 -51 -85 -23 0 -98 88 -110 130 -7 25 -23 59 -35 75 -12
17 -26 44 -29 60 -4 17 -20 50 -35 75 -15 25 -31 59 -35 76 -3 17 -17 46 -31
65 -13 18 -24 38 -24 44 0 6 -18 47 -40 90 -22 43 -40 84 -40 90 0 7 -16 33
-35 59 l-36 46 -198 0 c-109 0 -201 -3 -204 -7z"/>
</g>
</svg>
